<?xml version="1.0" encoding="UTF-8" standalone="no"?>
<!-- Created with Inkscape (http://www.inkscape.org/) -->

<svg
   xmlns:dc="http://purl.org/dc/elements/1.1/"
   xmlns:cc="http://creativecommons.org/ns#"
   xmlns:rdf="http://www.w3.org/1999/02/22-rdf-syntax-ns#"
   xmlns:svg="http://www.w3.org/2000/svg"
   xmlns="http://www.w3.org/2000/svg"
   version="1.1"
   width="180"
   height="177.5"
   id="svg3004"
   xml:space="preserve"><metadata
     id="metadata3010"><rdf:RDF><cc:Work
         rdf:about=""><dc:format>image/svg+xml</dc:format><dc:type
           rdf:resource="http://purl.org/dc/dcmitype/StillImage" /><dc:title></dc:title></cc:Work></rdf:RDF></metadata><defs
     id="defs3008" /><g
     transform="matrix(1.25,0,0,-1.25,0,177.5)"
     id="g3012"><path
       d="m 72.6211,73.075 47.6759,0 -47.6759,0 z"
       id="path3016"
       style="fill:#000000;fill-opacity:1;fill-rule:nonzero;stroke:none" /><path
       d="m 24.6211,73.075 48,0 -48,0 z"
       id="path3018"
       style="fill:#000000;fill-opacity:1;fill-rule:nonzero;stroke:none" /><path
       d="m 72.625,73.0672 30.777,-30.75 c 1.5,2.1328 3.004,4.4137 4.5,6.8008 l -23.9532,23.9492 -11.3238,0 z m 15.852,0 21.148,-21.1492 c 1.645,2.7461 3.258,5.6492 4.852,8.723 l -12.426,12.4262 -13.574,0 z m 18.097,0 L 116,63.641 c 1.461,2.9649 2.871,6.0629 4.25,9.3238 l -0.098,0.1024 -13.578,0 z"
       id="path3020"
       style="fill:#000000;fill-opacity:1;fill-rule:nonzero;stroke:none" /><path
       d="m 64.8012,134.192 c -0.4102,-0.008 -0.8172,-0.016 -1.2274,-0.024 l 0.0282,-0.027 c 0.582,0.012 1.164,0.039 1.75,0.051 -0.184,-0.004 -0.368,0.004 -0.5508,0 z m -3.3524,-0.074 c -0.25,-0.008 -0.5,-0.02 -0.75,-0.028 0.5864,0.016 1.1684,0.012 1.75,0.028 -0.3316,-0.004 -0.6636,0.004 -1,0 z M 14.375,131.317 c -1.4262,-0.129 -2.848,-0.262 -4.273,-0.399 0.2769,-2.586 0.6011,-5.117 0.9492,-7.601 l 50.2726,-50.2498 11.3012,0 -58.25,58.2498 z m -2.523,-13.301 c 0.9878,-6.016 2.1871,-11.723 3.55,-17.148 l 27.7968,-27.8008 13.6024,0 -44.9492,44.9488 z m 3.55,-17.148 c 0.246,-0.993 0.489,-1.9809 0.75,-2.95 -0.261,0.9769 -0.504,1.957 -0.75,2.95 z m 1.6492,-6.1532 c 2.1398,-7.5269 4.5898,-14.4609 7.25,-20.8468 l 0.8008,-0.8008 13.5968,0 -21.6476,21.6476 z"
       id="path3022"
       style="fill:#000000;fill-opacity:1;fill-rule:nonzero;stroke:none" /><path
       d="m 23.902,74.668 c 0.4421,-1.086 0.891,-2.1481 1.348,-3.2032 l 94.402,0 c 0.453,1.0551 0.903,2.1172 1.348,3.2032 l -97.098,0 z"
       id="path3024"
       style="fill:#000000;fill-opacity:1;fill-rule:nonzero;stroke:none" /><path
       d="m 72.625,134.266 c -0.5309,0 -1.066,-0.019 -1.598,-0.023 l 0,-121.5508 c 0.8832,-0.5352 1.4218,-0.8203 1.5468,-0.8242 0.1141,-0.0039 0.6961,0.289 1.6532,0.875 l 0,121.523 c -0.536,0 -1.0668,0.004 -1.602,0 z"
       id="path3026"
       style="fill:#000000;fill-opacity:1;fill-rule:nonzero;stroke:none" /><path
       d="m 16.4488,131.516 c -1.3789,-0.121 -2.7457,-0.269 -4.125,-0.398 L 102.477,40.9648 c 0.621,0.8641 1.253,1.7461 1.875,2.6532 l -87.9032,87.898 z"
       id="path3028"
       style="fill:#000000;fill-opacity:1;fill-rule:nonzero;stroke:none" /><path
       d="M 72.03125,0 C 71.372342,0.03102135 71.361602,0.15641139 71.15625,0.25 70.9441,0.34668686 70.718451,0.46961991 70.4375,0.625 69.875598,0.93576017 69.125916,1.4031484 68.21875,2 66.404418,3.1937032 63.932874,4.9789633 60.96875,7.4375 55.040502,12.354573 47.180005,19.912993 39.0625,30.59375 22.82749,51.955264 5.4985055,85.768224 0.15625,135.53125 L 0,137.09375 l 1.53125,0.125 c 47.050625,4.54218 94.157644,5.62441 141.28125,-0.25 l 1.5,-0.1875 -0.1875,-1.5 C 138.02638,84.940206 120.6316,51.16526 104.53125,30 96.481076,19.41737 88.74729,11.985253 82.9375,7.1875 80.032605,4.7886236 77.607126,3.0563788 75.84375,1.90625 74.962062,1.3311856 74.260445,0.88959895 73.71875,0.59375 73.447903,0.44582553 73.205941,0.34191289 73,0.25 72.897029,0.20404355 72.807858,0.16532581 72.6875,0.125 72.572672,0.08652723 72.467144,-0.0087799 72.0625,0 72.04301,4.2288503e-4 72.052338,-8.1613737e-4 72.03125,0 z m 0.0625,3.21875 c 0.05786,0.030166 0.08778,0.025106 0.15625,0.0625 0.444308,0.2426607 1.078273,0.6474675 1.90625,1.1875 1.655954,1.080065 4.024625,2.7657023 6.84375,5.09375 5.638251,4.656095 13.165562,11.900062 21.0625,22.28125 15.62178,20.536135 32.57378,53.339273 38.78125,102.25 C 95.076411,139.64646 49.275141,138.6606 3.4375,134.3125 8.9179647,85.993796 25.778705,53.195451 41.53125,32.46875 49.495296,21.989909 57.146622,14.589715 62.90625,9.8125 c 2.879814,-2.3886074 5.291089,-4.1256563 7,-5.25 0.854456,-0.5621719 1.533238,-0.9918572 2,-1.25 0.0833,-0.046071 0.118743,-0.057656 0.1875,-0.09375 z"
       id="path3030"
       style="font-size:medium;font-style:normal;font-variant:normal;font-weight:normal;font-stretch:normal;text-indent:0;text-align:start;text-decoration:none;line-height:normal;letter-spacing:normal;word-spacing:normal;text-transform:none;direction:ltr;block-progression:tb;writing-mode:lr-tb;text-anchor:start;baseline-shift:baseline;color:#000000;fill:#000000;fill-opacity:1;stroke:none;stroke-width:3.07374001;marker:none;visibility:visible;display:inline;overflow:visible;enable-background:accumulate;font-family:Sans;-inkscape-font-specification:Sans" /><path
       d="m 10.0941,130.922 c 41.6829,4.027 83.3707,4.981 125.0539,-0.215 C 124.383,41.8324 73.7422,11.8363 72.5781,11.8793 71.1988,11.9301 19.5199,43.098 10.0941,130.922 z"
       id="path3032"
       style="fill:none;stroke:#000000;stroke-width:3.07374001;stroke-linecap:square;stroke-linejoin:miter;stroke-miterlimit:4;stroke-opacity:1;stroke-dasharray:none" /><path
       d="m 72.6211,73.075 47.6759,0 -47.6759,0 z"
       id="path3034"
       style="fill:#ffffff;fill-opacity:1;fill-rule:nonzero;stroke:none" /><path
       d="m 24.6211,73.075 48,0 -48,0 z"
       id="path3036"
       style="fill:#ffffff;fill-opacity:1;fill-rule:nonzero;stroke:none" /><path
       d="m 94.902,129.493 c -0.1989,-0.008 -0.4059,-0.047 -0.6008,-0.102 -0.7852,-0.211 -1.4422,-0.738 -1.8524,-1.449 -0.4097,-0.711 -0.5859,-1.668 -0.3238,-2.649 0.266,-0.984 0.891,-1.714 1.602,-2.125 0.4289,-0.25 0.9179,-0.379 1.398,-0.402 l 1.9488,-7.25 c -0.8508,-2.312 -1.6168,-5.07 -2.2726,-8.348 l 1.7726,0 0,-1.8 -3.5738,0 -0.4262,-2.852 c -0.441,0.074 -0.9058,0.086 -1.3238,0 -0.3051,1.328 -1.352,2.426 -2.773,2.699 -0.1758,0.035 -0.352,0.02 -0.5282,0.028 0.0473,1.605 -0.984,3.05 -2.5468,3.5 0.0199,0.082 0.055,0.164 0.075,0.25 0.1171,0.613 0.0539,1.195 -0.125,1.75 0.246,0.175 0.5,0.351 0.7218,0.574 2.2422,2.238 2.2422,5.933 0,8.176 l -1.8976,-1.903 c 1.2187,-1.218 1.2187,-3.152 0,-4.375 l -0.0512,-0.023 c -0.1602,-0.156 -0.3199,-0.285 -0.5,-0.399 -0.2969,0.157 -0.625,0.305 -0.973,0.375 -0.8239,0.157 -1.6129,-0.015 -2.3,-0.375 -0.1918,0.121 -0.3829,0.258 -0.5508,0.422 -1.2231,1.223 -1.2231,3.157 0,4.375 l -1.8992,1.903 c -2.2418,-2.243 -2.2418,-5.938 0,-8.176 0.223,-0.227 0.473,-0.395 0.723,-0.574 -0.043,-0.137 -0.1211,-0.282 -0.148,-0.426 -0.352,-1.813 0.7652,-3.535 2.5,-4.051 -0.0239,-0.082 -0.036,-0.164 -0.0508,-0.25 -0.3711,-1.926 0.8707,-3.801 2.8008,-4.176 0.175,-0.031 0.3511,-0.039 0.523,-0.047 -0.0469,-1.711 1.141,-3.2418 2.875,-3.5782 0.473,-0.0898 0.934,-0.0617 1.375,0.0282 0.309,-1.3289 1.375,-2.4258 2.8012,-2.7 0.066,-0.0149 0.109,-0.0192 0.1758,-0.027 l -2.0282,-13.25 3.5512,0 0,-1.773 -1.773,0 2.675,-7.125 20.45,0 2.675,7.125 -1.8,0 0,1.773 3.574,0 -2.102,13.477 c 0.102,0.0109 0.227,0.0039 0.328,0.023 0.305,-1.3281 1.348,-2.4262 2.774,-2.6988 0.168,-0.0313 0.336,-0.0434 0.5,-0.0512 -0.043,-1.5941 1.004,-3.016 2.551,-3.473 -0.024,-0.086 -0.036,-0.1641 -0.051,-0.25 -0.117,-0.6129 -0.078,-1.2219 0.101,-1.777 -0.25,-0.1762 -0.48,-0.3519 -0.703,-0.5738 -2.238,-2.2383 -2.238,-5.9102 0,-8.1492 l 0.703,0.6718 c 0.235,0.6211 0.469,1.2461 0.7,1.875 -0.672,1.184 -0.516,2.6883 0.5,3.7032 0.164,0.164 0.359,0.3011 0.55,0.4218 0.114,-0.0578 0.231,-0.1007 0.348,-0.1476 0.828,2.4258 1.609,4.9098 2.375,7.4758 0.074,1.7308 -1.094,3.309 -2.848,3.6492 -0.175,0.0348 -0.332,0.0148 -0.5,0.0226 0.047,1.7114 -1.168,3.2422 -2.902,3.5782 -0.48,0.09 -0.949,0.094 -1.398,0 -0.309,1.325 -1.329,2.422 -2.75,2.7 -0.454,0.086 -0.899,0.054 -1.325,-0.028 l -0.425,2.653 -3.551,0 0,1.8 1.773,0 c -0.656,3.293 -1.441,6.055 -2.297,8.375 l 1.95,7.223 c 0.492,0.016 0.984,0.148 1.425,0.402 0.707,0.411 1.309,1.141 1.575,2.125 0.261,0.981 0.109,1.938 -0.301,2.649 -0.41,0.711 -1.09,1.238 -1.875,1.449 -0.785,0.211 -1.567,0.063 -2.274,-0.348 -0.711,-0.41 -1.312,-1.117 -1.578,-2.101 -0.261,-0.985 -0.133,-1.965 0.278,-2.676 0.253,-0.441 0.609,-0.793 1.023,-1.051 l -1.324,-5 c -1.801,3.735 -3.863,5.602 -5.926,5.602 -2.062,0 -4.148,-1.863 -5.9488,-5.602 l -1.3242,5 c 0.4179,0.262 0.7652,0.606 1.023,1.051 0.4102,0.711 0.5629,1.691 0.3012,2.676 -0.2621,0.984 -0.8633,1.691 -1.5742,2.101 -0.536,0.305 -1.1098,0.477 -1.7,0.45 z m 0.2742,-2.028 c 0.3437,0.02 0.6679,-0.074 0.9258,-0.222 0.339,-0.196 0.523,-0.446 0.5968,-0.727 0.0782,-0.281 0.0473,-0.609 -0.1476,-0.949 -0.1961,-0.34 -0.5203,-0.649 -1,-0.774 -0.4813,-0.129 -0.9852,-0.046 -1.3242,0.149 -0.3399,0.195 -0.5508,0.492 -0.625,0.773 -0.079,0.282 0.0031,0.586 0.1992,0.926 0.1949,0.34 0.5468,0.648 1.0226,0.777 0.1211,0.032 0.2391,0.043 0.3524,0.047 z m 17.5508,0 c 0.214,0.035 0.433,0.016 0.675,-0.047 0.477,-0.129 0.852,-0.437 1.047,-0.777 0.199,-0.34 0.25,-0.644 0.176,-0.926 -0.074,-0.281 -0.258,-0.578 -0.598,-0.773 -0.343,-0.195 -0.847,-0.278 -1.328,-0.149 -0.476,0.125 -0.828,0.434 -1.023,0.774 -0.196,0.34 -0.199,0.668 -0.125,0.949 0.074,0.281 0.258,0.531 0.601,0.727 0.168,0.097 0.36,0.191 0.575,0.222 z"
       id="path3038"
       style="fill:#000000;fill-opacity:1;fill-rule:nonzero;stroke:none" /><path
       d="m 43.8238,69.118 c -2.7379,0 -4.9718,-2.2391 -4.9718,-4.977 0,-2.7379 2.2339,-4.9262 4.9718,-4.9262 l 7.4262,0 0,-4.9718 -2.473,0 c -1.0782,0 -1.984,-0.6918 -2.3282,-1.6532 l -0.8468,0 c 0.1789,0.3793 0.273,0.7852 0.273,1.2274 0,1.5898 -1.3121,2.8976 -2.898,2.8976 -1.5899,0 -2.875,-1.3078 -2.875,-2.8976 0,-1.5902 1.2851,-2.875 2.875,-2.875 l 1.3,0 c -0.2891,-0.4883 -0.4532,-1.0434 -0.4532,-1.6492 -2.2027,0 -4.0738,-1.441 -4.7218,-3.425 9.2218,-13.8289 18.589,-22.9461 25.0742,-28.227 0.9449,0.0781 1.6758,0.859 1.6758,1.8238 l 0,2.25 c 1.625,0.8133 2.773,2.4813 2.773,4.4262 l 0,18.1762 c 0,2.7457 -2.227,4.9758 -4.973,4.9758 0,0.6019 -0.168,1.1609 -0.4532,1.6492 l 1.2782,0 c 1.5859,0 2.898,1.2848 2.898,2.875 0,1.5898 -1.3121,2.8976 -2.898,2.8976 -1.5899,0 -2.9032,-1.3078 -2.9032,-2.8976 0,-0.4422 0.1211,-0.8481 0.3012,-1.2274 l -0.898,0 c -0.3481,0.9571 -1.227,1.6532 -2.3008,1.6532 l -2.4492,0 0,4.9718 7.425,0 c 2.739,0 4.973,2.1883 4.973,4.9262 0,2.7379 -2.234,4.977 -4.973,4.977 l -19.8282,0 z M 42.977,55.0898 c 0.6949,0 1.25,-0.5777 1.25,-1.2726 0,-0.6953 -0.5551,-1.2274 -1.25,-1.2274 -0.6961,0 -1.227,0.5321 -1.227,1.2274 0,0.6949 0.5309,1.2726 1.227,1.2726 z m 21.5,0 c 0.6949,0 1.25,-0.5777 1.25,-1.2726 0,-0.6953 -0.5551,-1.2274 -1.25,-1.2274 -0.6961,0 -1.227,0.5321 -1.227,1.2274 0,0.6949 0.5309,1.2726 1.227,1.2726 z"
       id="path3040"
       style="fill:#000000;fill-opacity:1;fill-rule:nonzero;stroke:none" /><path
       d="m 66.336868,-43.547676 5.340043,0 0,12.334746 -5.340043,0 z"
       transform="scale(1,-1)"
       id="rect3055"
       style="fill:#000000" /><path
       d="m 72.53125,10.34375 c -0.72105,0.02656 -0.6804,0.130044 -0.875,0.21875 -0.1946,0.08871 -0.40419,0.204346 -0.65625,0.34375 -0.504121,0.278807 -1.160643,0.687092 -1.96875,1.21875 -1.616213,1.063315 -3.833523,2.658093 -6.46875,4.84375 C 57.292046,21.340065 50.336917,28.073373 43.125,37.5625 28.701167,56.540755 13.305144,86.560864 8.5625,130.75 l -0.15625,1.5625 1.53125,0.125 c 41.757402,4.0342 83.575324,4.99566 125.40625,-0.21875 l 1.5,-0.1875 -0.15625,-1.5 C 131.27289,85.828845 115.80458,55.83567 101.5,37.03125 94.347711,27.62904 87.477728,21.015566 82.3125,16.75 79.729886,14.617217 77.570801,13.055927 76,12.03125 75.214599,11.518912 74.579819,11.140583 74.09375,10.875 c -0.243034,-0.132792 -0.435774,-0.227961 -0.625,-0.3125 -0.09461,-0.04227 -0.197724,-0.08646 -0.3125,-0.125 -0.114776,-0.03854 -0.169466,-0.110577 -0.625,-0.09375 z m 0.03125,3.21875 c 0.02583,0.01381 0.03472,0.01607 0.0625,0.03125 0.388888,0.212485 0.955758,0.553914 1.6875,1.03125 1.463485,0.954671 3.534385,2.43803 6.03125,4.5 4.993731,4.12394 11.688451,10.549235 18.6875,19.75 13.82604,18.175349 28.8208,47.196684 34.34375,90.46875 -40.475473,4.89345 -80.986531,4.02763 -121.53125,0.1875 4.880179,-42.74547 19.777239,-71.781363 33.71875,-90.125 7.058446,-9.287198 13.866925,-15.831046 18.96875,-20.0625 2.550912,-2.115727 4.676697,-3.662285 6.1875,-4.65625 0.755401,-0.496983 1.372219,-0.867532 1.78125,-1.09375 0.02922,-0.01616 0.03526,-0.01649 0.0625,-0.03125 z"
       id="path3015"
       style="font-size:medium;font-style:normal;font-variant:normal;font-weight:normal;font-stretch:normal;text-indent:0;text-align:start;text-decoration:none;line-height:normal;letter-spacing:normal;word-spacing:normal;text-transform:none;direction:ltr;block-progression:tb;writing-mode:lr-tb;text-anchor:start;baseline-shift:baseline;color:#000000;fill:#000000;fill-opacity:1;stroke:none;stroke-width:3.07374001;marker:none;visibility:visible;display:inline;overflow:visible;enable-background:accumulate;font-family:Sans;-inkscape-font-specification:Sans" /></g></svg>